<?xml version="1.0" encoding="iso-8859-1"?>
<!-- Generator: Adobe Illustrator 18.1.1, SVG Export Plug-In . SVG Version: 6.00 Build 0)  -->
<svg version="1.1" id="Capa_1" xmlns="http://www.w3.org/2000/svg" xmlns:xlink="http://www.w3.org/1999/xlink" x="0px" y="0px"
	 viewBox="0 0 284.492 284.492" style="enable-background:new 0 0 284.492 284.492;" xml:space="preserve">
<g>
	<g>
		<path style="fill:#e9a80f" d="M93.645,215.237c4.747-1.983,9.543-3.877,14.241-5.909c0.821-0.366,1.618-1.219,1.967-2.032
			c1.049-2.634,1.935-5.365,2.764-8.096c0.634-2.048,1.049-4.081,3.699-4.633c0.65-0.146,1.488-1.301,1.593-2.048
			c0.512-3.983,0.919-7.958,1.195-11.957c0.081-0.845-0.382-1.935-0.959-2.585c-3.503-3.894-5.406-8.397-6.218-13.575
			c-0.398-2.585-1.845-4.999-2.577-7.56c-1.016-3.414-1.837-6.877-2.609-10.364c-0.268-1.252-0.114-2.601-0.317-3.885
			c-0.317-1.87-0.252-3.3,2.008-4.032c0.602-0.187,1.138-1.691,1.171-2.601c0.098-5.544,0.016-11.096,0.057-16.68
			c0.024-3.398,0-6.836,0.26-10.234c0.463-6.527,4.276-11.112,9.08-15.07c6.999-5.763,15.387-8.478,24.004-10.51
			c4.528-1.073,9.145-1.699,13.721-2.455c1.211-0.211,2.528-0.033,3.772-0.033c0.187,0.317,0.415,0.634,0.626,0.951
			c-0.967,0.699-2.057,1.276-2.878,2.113c-1.87,1.861-1.699,3.17,0.309,4.885c4.17,3.512,8.307,7.031,12.372,10.665
			c3.552,3.211,4.918,7.389,4.934,12.087c0.016,8.088,0.016,16.168,0.016,24.28c-0.016,1.666-0.154,3.276,1.902,4.032
			c0.463,0.154,0.886,1.049,0.87,1.561c-0.35,4.146-0.821,8.291-1.244,12.42c0,0.171-0.033,0.333-0.122,0.463
			c-3.731,5.446-4.219,12.112-6.885,17.94c-0.098,0.203-0.154,0.48-0.317,0.667c-4.91,5.796-3.39,12.794-3.487,19.476
			c-0.024,0.65,0.48,1.715,1.024,1.967c2,0.87,2.52,2.585,3.064,4.43c0.878,2.886,1.748,5.763,2.959,8.494
			c0.471,1.016,1.837,1.886,2.951,2.317c8.941,3.43,17.793,7.015,26.564,10.86V21.012H81.225v199.5
			C85.37,218.675,89.524,216.96,93.645,215.237z"/>
		<path style="fill:#e9a80f" d="M205.665,0H78.827C68.26,0,59.611,8.633,59.611,19.208v246.076
			c0,10.559,8.649,19.208,19.216,19.208h126.838c10.567,0,19.216-8.649,19.216-19.208V19.216C224.881,8.641,216.232,0,205.665,0z
			 M114.015,270.657H97.791c-2.975,0-5.406-2.43-5.406-5.414s2.43-5.414,5.406-5.414h16.225c2.967,0,5.397,2.43,5.397,5.414
			S117.007,270.657,114.015,270.657z M142.246,274.892c-5.3,0-9.608-4.3-9.608-9.608c0-5.316,4.3-9.608,9.608-9.608
			c5.308,0,9.608,4.284,9.608,9.608C151.854,270.592,147.546,274.892,142.246,274.892z M186.701,270.657h-16.208
			c-2.983,0-5.414-2.43-5.414-5.414s2.43-5.414,5.414-5.414h16.208c2.983,0,5.406,2.43,5.406,5.414S189.684,270.657,186.701,270.657
			z M211.51,248.938H72.982V12.559h138.535v236.379H211.51z"/>
	</g>
</g>
<g>
</g>
<g>
</g>
<g>
</g>
<g>
</g>
<g>
</g>
<g>
</g>
<g>
</g>
<g>
</g>
<g>
</g>
<g>
</g>
<g>
</g>
<g>
</g>
<g>
</g>
<g>
</g>
<g>
</g>
</svg>
