<?xml version="1.0" standalone="no"?>
<svg viewBox="0 0 200 200" xmlns="http://www.w3.org/2000/svg">
  <path fill="#FF0066" d="M20.2,-33.7C28.7,-30.2,39.6,-29.7,46.3,-24.5C53.1,-19.4,55.8,-9.7,58.7,1.7C61.6,13.1,64.7,26.1,58.9,32.9C53,39.6,38.2,40,26.9,49.3C15.6,58.7,7.8,76.9,1.8,73.7C-4.1,70.5,-8.2,45.8,-16.7,34.9C-25.3,24,-38.4,26.9,-45.2,23.3C-51.9,19.8,-52.5,9.9,-50.8,1C-49.2,-8,-45.3,-16,-41.4,-24.5C-37.5,-33,-33.5,-42.1,-26.6,-46.5C-19.7,-50.8,-9.9,-50.5,-2,-47.1C5.9,-43.7,11.8,-37.2,20.2,-33.7Z" transform="translate(100 100)" />
</svg>
