<?xml version="1.0" standalone="no"?>
<svg viewBox="0 0 200 200" xmlns="http://www.w3.org/2000/svg">
  <path fill="#FF0066" d="M26.9,-41.5C32.5,-38.3,33,-26.8,31.5,-17.9C30.1,-9.1,26.7,-2.9,27.2,5C27.8,12.8,32.2,22.3,29.6,26.2C27.1,30.1,17.5,28.5,9,31.2C0.6,33.9,-6.7,40.9,-15.9,43.2C-25,45.5,-36,43,-36.9,35.5C-37.8,28,-28.7,15.4,-35.7,1.9C-42.6,-11.7,-65.8,-26.1,-65.8,-31.7C-65.9,-37.4,-42.9,-34.1,-28,-33.1C-13.2,-32.2,-6.6,-33.4,2,-36.6C10.7,-39.8,21.3,-44.8,26.9,-41.5Z" transform="translate(100 100)" />
</svg>
