<?xml version="1.0" standalone="no"?>
<svg viewBox="0 0 200 200" xmlns="http://www.w3.org/2000/svg">
  <path fill="#FF0066" d="M36,-59C48,-48.2,60.1,-40.6,62.1,-30.1C64.1,-19.7,56.1,-6.4,56.5,9.8C56.8,26,65.5,45.2,61.8,58.6C58.1,72.1,41.9,80,27.7,75.6C13.5,71.2,1.1,54.6,-12.2,47.9C-25.6,41.1,-40.1,44.2,-43.7,38.7C-47.3,33.1,-40,18.9,-45.8,4.2C-51.7,-10.5,-70.7,-25.8,-70.7,-34.9C-70.6,-44.1,-51.5,-47.2,-36.5,-56.7C-21.5,-66.1,-10.8,-82,0.6,-82.9C12,-83.9,23.9,-69.9,36,-59Z" transform="translate(100 100)" />
</svg>
