<?xml version="1.0" encoding="iso-8859-1"?>
<!-- Generator: Adobe Illustrator 17.1.0, SVG Export Plug-In . SVG Version: 6.00 Build 0)  -->
<!DOCTYPE svg PUBLIC "-//W3C//DTD SVG 1.1//EN" "http://www.w3.org/Graphics/SVG/1.1/DTD/svg11.dtd">
<svg version="1.1" id="Capa_1" xmlns="http://www.w3.org/2000/svg" xmlns:xlink="http://www.w3.org/1999/xlink" x="0px" y="0px"
	 viewBox="0 0 453.296 453.296" style="enable-background:new 0 0 453.296 453.296;" xml:space="preserve">
<g fill="#e9a80f">
	<path d="M154.914,211.842l-35.808-0.549c-3.085-0.048-6.211-2.763-6.69-5.811l-8.197-52.109c-0.514-3.267-1.813-5.513-3.408-6.975
		c-2.968-4.224-7.957-6.936-13.489-6.69l-45.215,1.969c-8.697,0.379-15.771,7.771-15.768,16.476l0.038,108.34
		c0,0.261,0.025,0.514,0.038,0.77c-0.004,0.131-0.019,0.257-0.02,0.389c-0.032,5.716-0.333,15.232-0.672,21.214l-1.47,26.033
		c-0.309,5.462-2.437,14.303-4.647,19.306L1.302,375.629c-1.764,3.991-1.734,8.403,0.08,12.105c1.815,3.702,5.285,6.428,9.52,7.479
		l1.743,0.433c1.325,0.329,2.711,0.496,4.12,0.496c7.182,0,14.052-4.168,17.095-10.372l17.105-34.865
		c2.805-5.718,6.298-15.411,7.786-21.607l9.698-40.397l23.563,36.034c2.86,4.374,5.884,12.768,6.471,17.961l4.536,40.179
		c0.954,8.454,8.654,15.332,17.165,15.332l2.557-0.009c4.353-0.016,8.311-1.753,11.144-4.893s4.158-7.254,3.729-11.585
		l-4.834-48.738c-0.646-6.513-2.985-16.401-5.325-22.514l-22.727-59.361l-0.131-11.704l51.643-1.912
		c4.474-0.165,8.569-1.978,11.236-4.973c2.144-2.407,3.191-5.408,2.951-8.451C169.886,217.423,163.072,211.966,154.914,211.842z
		 M120.183,393.404L120.183,393.404v0.002V393.404z"/>
	<path d="M55.676,129.975c4.378,0,8.707-0.747,12.866-2.22c9.709-3.437,17.5-10.449,21.935-19.745
		c2.962-6.209,4.181-12.94,3.646-19.62l9.726-1.098c5.717-0.646,11.52-5.205,13.498-10.606l3.058-8.351
		c1.173-3.205,0.864-6.45-0.849-8.901c-1.67-2.391-4.484-3.761-7.719-3.761c-0.376,0-0.764,0.018-1.162,0.056l-34.163,3.25
		c-6.086-3.916-13.28-6.14-20.84-6.14c-4.376,0-8.705,0.746-12.865,2.219c-20.043,7.098-30.576,29.177-23.479,49.217
		C24.769,119.647,39.377,129.975,55.676,129.975z"/>
	<path d="M211.668,137.77c-0.561-8.057-7.587-14.611-15.691-14.611l-64.514,0.112c-4.06,0.007-7.792,1.618-10.509,4.535
		c-2.716,2.918-4.058,6.755-3.775,10.805l3.276,47.082c0.56,8.058,7.587,14.612,15.666,14.612l64.539-0.113
		c4.06-0.007,7.792-1.616,10.509-4.534c2.717-2.917,4.059-6.755,3.776-10.806L211.668,137.77z M136.12,195.304L136.12,195.304
		L136.12,195.304L136.12,195.304z"/>
	<path d="M368.163,142.774c22.376,0,40.581-18.204,40.581-40.581c0-22.376-18.205-40.58-40.581-40.58
		c-22.376,0-40.58,18.204-40.58,40.58C327.583,124.57,345.787,142.774,368.163,142.774z"/>
	<path d="M449.843,201.382l-27.791-38.721c-3.403-4.742-10.531-10.209-22.501-10.209c-16.766,0-67.063,0-67.063,0
		c-5.968,0-13.778,3.03-17.796,5.07l-21.339,10.837c-2.035,1.033-5.274,1.676-8.454,1.676c-2.246,0-4.312-0.31-5.817-0.872
		l-34.526-12.896c-1.613-0.602-3.235-0.907-4.821-0.907c-6.545,0-11.296,5.086-11.296,12.093v2.609
		c0,7.56,5.554,15.535,12.645,18.158l35.029,12.955c3.166,1.171,7.296,1.816,11.629,1.816c0,0,0,0,0,0
		c3.917,0,7.668-0.544,10.563-1.53l27.183-9.265v190.261c0,9.925,8.075,18,18,18h4.215c9.925,0,18-8.075,18-18v-94.74h4.925v94.74
		c0,9.925,8.075,18,18,18h4.214c9.925,0,18-8.075,18-18V267.311c6.9-0.552,14.504-4.936,18.177-10.632l21.375-33.145
		C454.467,217.218,454.225,207.488,449.843,201.382z M410.843,196.754l9.337,13.4c1.941,2.785,1.921,7.845-0.042,10.615
		l-9.295,13.119V196.754z"/>
</g>
<g>
</g>
<g>
</g>
<g>
</g>
<g>
</g>
<g>
</g>
<g>
</g>
<g>
</g>
<g>
</g>
<g>
</g>
<g>
</g>
<g>
</g>
<g>
</g>
<g>
</g>
<g>
</g>
<g>
</g>
</svg>
