<?xml version="1.0" encoding="iso-8859-1"?>
<!-- Generator: Adobe Illustrator 19.0.0, SVG Export Plug-In . SVG Version: 6.00 Build 0)  -->
<svg version="1.1" id="Capa_1" xmlns="http://www.w3.org/2000/svg" xmlns:xlink="http://www.w3.org/1999/xlink" x="0px" y="0px"
	 viewBox="0 0 429.281 429.281" style="enable-background:new 0 0 429.281 429.281;" xml:space="preserve">
<g fill="#e9a80f">
	<path d="M418.458,114.526C407.987,80.77,395.752,47.22,383.537,14.064c-0.429-1.165-1.078-2.063-1.767-2.895
		c0.091-5.216-3.184-10.386-9.912-10.175C268.769,4.216,159.029-6.581,57.066,7.288c-0.38,0.01-0.736,0.072-1.113,0.122
		c-0.186,0.026-0.379,0.036-0.568,0.062c-0.091,0.013-0.117,0.11-0.204,0.127c-2.989,0.636-5.769,2.47-7.122,6.075
		C35.562,46.98,20.027,82.508,13.526,118.245c-13.541,17.539-9.79,50.656,16.267,52.454c21.732,1.499,37.131-18.408,33.997-37.63
		c0.028-0.03,0.048-0.067,0.076-0.097c0.767-0.787,1.531-1.473,2.268-2.141c2.842,8.58,2.564,18.39,8.617,26.033
		c6.21,7.839,15.996,11.874,25.912,11.8c17.392-0.134,31.865-12.22,39.395-27.413c4.342,16.282,16.384,29.27,36.038,27.314
		c12.145-1.209,25.354-9.805,33.65-21.089c2.147-1.552,4.008-3.265,5.531-5.17c0.524-0.001,1.056,0.037,1.581,0.034
		c5.991,14.898,17.507,27.386,34.363,28.622c17.581,1.287,31.935-11.274,39.192-26.858c6.173,15.348,18.683,27.711,36.747,28.318
		c18.782,0.633,33.999-10.813,42.8-26.203c1.442,7.321,4.952,13.994,12.044,19.005c10.905,7.705,25.003,6.294,33.899-3.755
		C427.785,148.047,423.178,129.743,418.458,114.526z"/>
	<path d="M387.427,188.327c0.004-4.679-3.063-7.244-6.607-8.115c-0.03-0.039-0.021-0.088-0.052-0.127
		c-2.613-3.205-4.181-4.182-7.73-5.038c-4.294-4.945-14.423-4.542-16.219,3.284c-2.13,9.267-28.831,5.905-34.62,4.613
		c-10.48-2.339-20.253-7.085-29.314-12.787c-3.175-3.261-8.181-4.357-12.135,0.101c-14.302,16.114-45.451,11.668-61.696,0.688
		c-0.336-0.227-0.67-0.086-1.011-0.228c-3.129-1.619-7.059-1.645-10.365,1.426c-11.628,10.805-44.931,15.692-59.197,4.316
		c-1.592-6.208-9.179-10.673-14.301-4.472c-18.431,22.317-46.405,16.836-63.603-3.625c-3.095-3.681-8.89-2.858-12.1,0
		c-5.525,4.919-9.22,7.9-11.437,12.573c-2.601,0.467-5.138,2.531-5.416,5.511c-7.062,76.247-0.471,156.207,0.278,232.857
		c0.069,7.035,7.69,9.042,12.252,6.218c2.189,0.501,4.535,0.344,7.389,0.241c6.134-0.223,12.287,0.377,18.293-0.908
		c3.275-0.701,4.216-3.354,3.743-5.921c0.312-0.63,0.872-1.114,0.952-1.848c3.823-35.34,4.977-71.831,6.765-107.584
		c0.108-0.039,0.204-0.126,0.313-0.17c26.725,4.863,60.411,6.573,87.071,1.108c-0.126,19.165-0.265,38.329-0.864,57.487
		c-0.352,11.293-2.661,23.168-2.056,34.433c-0.759,5.982-0.865,11.983-0.894,18.087c-0.017,3.932,3.232,6.81,7.008,7.007
		c21.63,1.124,44.817,1.36,66.378-0.733c6.377-0.619,8.485-6.827,6.313-11.063c4.136-32.695-0.154-67.667,0.265-100.837
		c13.648,0.303,27.117-1.375,41.041-0.997c14.258,0.385,28.77,2.227,43.087,1.93c2.42,2.649,4.172,5.485,5.611,8.409
		c-2.869,31.053-3.997,63.479-0.653,94.032c0.469,4.277,3.644,6.196,6.728,6.004c0.709,0.682,1.269,1.463,2.438,1.824
		c8.007,2.478,20.357,3.762,27.861-1.491c2.664,0.283,5.492-0.847,5.892-3.75C397.177,345.773,387.34,264.102,387.427,188.327z
		 M104.589,260.448c1.143-15.501,1.362-31.107,0.967-46.651c73.542,5.562,148.611,2.875,222.396,3.776
		c-2.221,16.446-2.377,34.045-1.11,50.988c-0.668-0.114-1.221-0.385-1.974-0.375c-73.147,0.949-148.138-2.967-221.064,3.202
		C104.116,267.698,104.328,264.001,104.589,260.448z"/>
	<path d="M165.302,332.312c-2.735-5.724-7.495-7.202-13.514-7.956c-13.937-1.745-29.579-1.178-43.687,0.494
		c-4.023-0.769-8.81,1.413-9.016,6.738c-1.091,28.199-7.162,61.482-0.837,89.094c0.204,0.892,0.776,1.397,1.288,1.964
		c0.44,1.709,1.284,3.273,2.891,4.063c6.856,3.363,15.371,2.506,22.836,2.393c7.483-0.114,16.208-0.131,23.654-2.262
		c4.745,3.437,13.611,1.366,13.924-6.453c0.642-16.064,1.297-32.126,1.913-48.191C165.128,362.394,169.759,341.642,165.302,332.312z
		"/>
	<path d="M332.365,336.965c3.46-5.196-1.212-14.569-9.508-13.378c-17.429,2.505-34.733-2.698-52.17,0.739
		c-2.601,0.512-3.911,2.774-4.355,5.197c-0.497,0.959-0.826,2.03-0.714,3.333c1.431,16.5,2.529,32.592,1.947,49.174
		c-0.473,13.475-2.025,26.992,0.668,40.296c0.728,3.598,4.012,5.058,7.183,4.787c1.033,0.698,2.273,1.195,3.893,1.159
		c6.999-0.153,13.991-0.973,20.988-1.309c5.843-0.28,11.768-0.119,17.539-1.02c4.318,4.225,13.742,2.413,13.961-5.525
		C332.558,392.903,335.165,364.472,332.365,336.965z"/>
	<path d="M302.658,227.949c-57.362,1.83-114.777,0.049-172.104,1.807c-16.182,0.497-15.965,23.93,0,24.985
		c57.102,3.778,114.935,1.43,172.104,0.067C319.923,254.398,319.962,227.398,302.658,227.949z"/>
</g>
<g>
</g>
<g>
</g>
<g>
</g>
<g>
</g>
<g>
</g>
<g>
</g>
<g>
</g>
<g>
</g>
<g>
</g>
<g>
</g>
<g>
</g>
<g>
</g>
<g>
</g>
<g>
</g>
<g>
</g>
</svg>
