<svg xmlns="http://www.w3.org/2000/svg" xmlns:xlink="http://www.w3.org/1999/xlink" viewBox="0 0 400 300" width="406" height="306" class="illustration styles_illustrationTablet__1DWOa"><defs><linearGradient id="linear-gradient" x1="188.62" y1="110.12" x2="182.05" y2="118.33" gradientUnits="userSpaceOnUse"><stop offset="0" stop-color="#d4a397"></stop><stop offset="1" stop-color="#fff"></stop></linearGradient><linearGradient id="linear-gradient-2" x1="231.74" y1="114.77" x2="225.17" y2="122.99" xlink:href="#linear-gradient"></linearGradient><linearGradient id="linear-gradient-3" x1="110.21" y1="189" x2="141.09" y2="155.74" gradientUnits="userSpaceOnUse"><stop offset="0" stop-color="#fff" stop-opacity="0"></stop><stop offset="1" stop-color="#7f2e00"></stop></linearGradient><linearGradient id="linear-gradient-4" x1="58.92" y1="168.33" x2="42.57" y2="186.56" xlink:href="#linear-gradient"></linearGradient><linearGradient id="linear-gradient-5" x1="340.12" y1="187.7" x2="320.05" y2="205.91" xlink:href="#linear-gradient"></linearGradient><linearGradient id="linear-gradient-6" x1="194.61" y1="138.71" x2="207.63" y2="131.83" gradientUnits="userSpaceOnUse"><stop offset="0.01" stop-color="#f7931e" stop-opacity="0"></stop><stop offset="0.99" stop-color="#f7931e"></stop></linearGradient></defs><title>PP</title><g style="isolation: isolate;"><g id="Layer_2" data-name="Layer 2"><path d="M195.53,283.62,23,181.67c-5.49-3.08-10.2-8.15-4.85-11.46L191.31,70.43c2.6-1.61,6.54-2.66,9.18-1.13L381.56,174.39c5.49,3.19,6.48,12.1,1,15.29L218.27,283.45A22.94,22.94,0,0,1,195.53,283.62Z" fill="#ff9f9f"></path><path d="M155.07,135.68s-.14,6.78.68,7.2S161.67,150,162,151c1.18,3.48-5.25,5-7.55,3.83s-6.17-7.7-6.44-9.35-2.16-11.79-2.16-11.79" fill="#5b5ea5"></path><path d="M164.72,129.78s-.14,6.78.68,7.2,9.17,5.37,9.59,6.39c1.34,3.23-5.18,4.46-7.48,3.28s-9.55-5.41-9.82-7.06-2.16-11.79-2.16-11.79" fill="#5b5ea5"></path><path d="M138.68,64.47s-4.86,7.61-4.21,14.45,7.49,61.18,11.88,60.63,7,.07,9.32-5.67c0,0,7.38,1.67,9.72-4.19,0,0-1.78-51-6-59S138.68,64.47,138.68,64.47Z" fill="#e9a80f"></path><path d="M201.56,44.49a23.25,23.25,0,0,0-3.73-.62,20.79,20.79,0,0,1,3.81.39c1.31.21,1.46-1.85.16-2.06l-.65-.1a1.07,1.07,0,0,0-.67-1.74,20.25,20.25,0,0,0-8.54.78,17.2,17.2,0,0,0-.06-3.13.91.91,0,0,0-.21-.49,1.08,1.08,0,0,0-2,.28c-.28,1.66-.2,3.35-.48,5a6.51,6.51,0,0,1-.22.88q-1.91,2-3.76,4c-.87,1,.73,2.1,1.62,1.25a1.22,1.22,0,0,0,.56.46l-.15.2a.92.92,0,0,0-.11.93l-.15.15c-.95.93.38,2.52,1.33,1.58l.33-.33a.83.83,0,0,0,1.21-.34,9.73,9.73,0,0,1,3.2-3.19l.4-.28a13.08,13.08,0,0,1,3.48-.68c.88.22,1.75.49,2.62.76a1,1,0,0,0,.8-1.89l.56.12C202.14,46.76,202.85,44.82,201.56,44.49Z" fill="#ffc388"></path><path d="M201.31,41.83a22.85,22.85,0,0,0-4.11-.18c-.33,0-.38.54,0,.53a22.85,22.85,0,0,1,4.11.18C201.61,42.4,201.65,41.88,201.31,41.83Z" fill="#663a12"></path><path d="M201.51,43.92a28.31,28.31,0,0,0-4.38-.31c-.34,0-.38.53,0,.53a28.31,28.31,0,0,1,4.38.31C201.8,44.5,201.84,44,201.51,43.92Z" fill="#663a12"></path><path d="M195.68,44.61a5.37,5.37,0,0,0-4.75.9c-.28.19.06.59.34.4a4.8,4.8,0,0,1,4.23-.81A.26.26,0,0,0,195.68,44.61Z" fill="#663a12"></path><path d="M196.52,44.49a3.68,3.68,0,0,0-2-2.85c-.31-.13-.49.37-.18.5A3.15,3.15,0,0,1,196,44.59C196.08,44.92,196.6,44.82,196.52,44.49Z" fill="#663a12"></path><path d="M200.76,45.84a11.17,11.17,0,0,0-3.38-.91c-.34,0-.38.49,0,.53a10.71,10.71,0,0,1,3.24.88C200.89,46.48,201.07,46,200.76,45.84Z" fill="#663a12"></path><path d="M178.2,41.77l2.42,14.83s-1.84,5.53-5.81,6.24-6.95-17.73-6.95-17.73" fill="#5b5ea5"></path><path d="M166.47,33.83c-.55-.14-5.08.63-9,1.9s-21,26.24-18.77,28.74,12.79,7.47,19.12,6.1,21.09-26,20.4-28.8c-1.59-6.41-6.54-6.43-6.54-6.43" fill="#686ebc"></path><path d="M177.72,27.24s1.15,9.4-2.26,11.09-7.1-1.83-8.19-3.87S165,22.07,171.39,22.77,177.72,27.24,177.72,27.24Z" fill="#ffc388"></path><path d="M177.91,21c-2.6-.91-5.61-2.86-10.23.19s-6.06,11.54-.53,13.59l1-3.05a3.09,3.09,0,0,1-.65-2.17,1.79,1.79,0,0,1,2.14-1.67,4.69,4.69,0,0,0,1.37-1.62c.94-1.85,2-.94,3.36.7s4.29,2.14,5.74,1.1S181.21,22.19,177.91,21Z" fill="#663a12"></path><path d="M187.72,43.93c-3.22,2-9.78,7.83-9.78,7.83L173.15,62s2.8,4,8,1.17c3.71-2,9.56-9.18,12.37-13.46A10.62,10.62,0,0,0,187.72,43.93Z" fill="#5b5ea5"></path><path d="M152.52,80.26c-.07-.7-1.17-.71-1.1,0l5,53.56c.07.7,1.17.71,1.1,0Z" fill="#663a12"></path><ellipse cx="202.6" cy="52.81" rx="16.56" ry="8.52" fill="#e9a80f"></ellipse><ellipse cx="202.6" cy="52.81" rx="16.56" ry="8.52" fill="#093e3e" opacity="0.29"></ellipse><ellipse cx="202.6" cy="51.81" rx="16.56" ry="8.52" fill="#e9a80f"></ellipse><ellipse cx="202.87" cy="51.81" rx="11.2" ry="5.28" fill="#093e3e" opacity="0.29"></ellipse><path d="M198.66,50.7l.52.1-.14-1.1a10,10,0,0,1-2.08-.63,23.18,23.18,0,0,1-4.48-1.82,9,9,0,0,1-.93-.5c-1.27-.34-2.44-1.69-2.2,0a4,4,0,0,0,1,2q1.78.51,3.57.95C195.51,50,197.09,50.32,198.66,50.7Z" fill="#99ce45"></path><path d="M199.31,51.78l-.06-.51-.56-.13-8.79-1.59c-1,.28-2.62.12-1.75,1s1.89.63,2.21.93q1.22.14,2.45.21C195,51.61,197.14,51.68,199.31,51.78Z" fill="#99ce45"></path><path d="M199.08,52.72l.34,0-.06-.47a.19.19,0,0,1-.17.11l-9.24.22c-.7.7-1.56.73-.22,1a7.05,7.05,0,0,1,1.82.38l7.34-1.24A.21.21,0,0,1,199.08,52.72Z" fill="#99ce45"></path><path d="M199,49.12l0-.19a.18.18,0,0,1-.28,0,38.92,38.92,0,0,1-3.34-3.64,1.43,1.43,0,0,1-.37-.11c-1.31-.54-1.71-1.07-2.27-.2-.37.58,0,1.25-.07,1.6a34.29,34.29,0,0,0,6,2.46Z" fill="#99ce45"></path><path d="M198.82,47.84s-.23-3.42-1.83-3.56c-.78-.07-1,.27-1.11.57,1,1.24,2,2.46,3,3.69Z" fill="#99ce45"></path><path d="M199.41,53.46l.1-.06v-.08l-.14.1Z" fill="#99ce45"></path><path d="M199,53.14l-.48,0a29.33,29.33,0,0,0-7,2.76c.06.27.31.32.87.24,1-.14,2.19-1.46,2.53-.69.68-.47,1.48-.78,2.2-1.19S198.4,53.56,199,53.14Z" fill="#99ce45"></path><path d="M191.72,55.17a.2.2,0,0,1-.14,0l0,.18.33-.21Z" fill="#99ce45"></path><path d="M198.68,48.92a.18.18,0,0,0,.28,0l0-.39c-1-1.23-2-2.45-3-3.69-.12.25-.2.47-.54.43A38.92,38.92,0,0,0,198.68,48.92Z" fill="#88b72c"></path><path d="M197,49.06a10,10,0,0,0,2.08.63l-.07-.57-.37-.08a34.29,34.29,0,0,1-6-2.46c-.05.17-.24.27-.7.23a2.12,2.12,0,0,1-.37-.07,9,9,0,0,0,.93.5A23.18,23.18,0,0,0,197,49.06Z" fill="#88b72c"></path><path d="M199.25,51.27l-.06-.47-.52-.1c-1.57-.38-3.15-.74-4.74-1q-1.8-.44-3.57-.95c.18.26.24.44-.06.66a1.28,1.28,0,0,1-.39.18l8.79,1.59Z" fill="#88b72c"></path><path d="M199.36,52.21l-.05-.43c-2.17-.09-4.34-.17-6.5-.06q-1.23-.07-2.45-.21c.12.11.12.28-.07.59a2.21,2.21,0,0,1-.34.43l9.24-.22A.19.19,0,0,0,199.36,52.21Z" fill="#88b72c"></path><path d="M199.53,53.53l0-.13-.1.06-.05,0,.14-.1-.08-.64-.34,0a.21.21,0,0,0-.18-.05l-7.34,1.24c.19.14.23.39.11.9l-.08.36a.2.2,0,0,0,.14,0l.15,0-.33.21a1.58,1.58,0,0,0,0,.61,29.33,29.33,0,0,1,7-2.76l.48,0c-.62.42-1.25.81-1.9,1.18s-1.52.71-2.2,1.19l0,0C195.25,56.38,199.53,53.53,199.53,53.53Z" fill="#88b72c"></path><path d="M213.29,50.91a3.52,3.52,0,0,0,.3-.25,1.55,1.55,0,0,0-.08-2.32,3.63,3.63,0,0,0-2.38-.67H211c0-.18-.05-.45-.11-.59a2.17,2.17,0,0,0-.84-.94,3.75,3.75,0,0,0-2.82-.38c-.35.07-1,.45-1.35.33s-.76-.85-1.12-1.09A3.57,3.57,0,0,0,200,46a3.75,3.75,0,0,0-.46,1.35c-.13.63-.37.65-1,.92a2.39,2.39,0,0,0-1.73,2.08,2.53,2.53,0,0,0,1.82,2.42l.29.15a5.26,5.26,0,0,0,1.36,1.39,8.56,8.56,0,0,0,4.15,1.14c2.35.23,6.1.73,7.78-1.07,1.55-.59,2.68-2.13,1.18-3.38Z" fill="#f8f5e6"></path><ellipse cx="205.68" cy="49.61" rx="4.32" ry="2.26" fill="#f19e16"></ellipse><path d="M207,48a.67.67,0,0,0,0,1.34A.67.67,0,0,0,207,48Z" fill="#f9f6bf"></path><path d="M205.52,51.26c-1.54-.12-3.71-.88-3.89-2.42a1.35,1.35,0,0,0-.27.78c0,1.25,1.94,2.26,4.32,2.26,1.94,0,3.59-.67,4.13-1.59A6.21,6.21,0,0,1,205.52,51.26Z" fill="#db8303"></path><ellipse cx="199.97" cy="54.55" rx="3.87" ry="1.78" fill="#d84027"></ellipse><ellipse cx="199.97" cy="54.04" rx="3.87" ry="1.78" fill="#ea6453"></ellipse><path d="M197.29,54.19a4.29,4.29,0,0,0,3.08,1A2.79,2.79,0,0,0,203,53.64Z" fill="#d84027"></path><path d="M197,53.9l5.73-.63a13.79,13.79,0,0,0-3.4-.49A3.63,3.63,0,0,0,197,53.9Z" fill="#d84027"></path><path d="M197.55,54.16a.1.1,0,0,0,0,.21A.1.1,0,0,0,197.55,54.16Z" fill="#f9b2ac"></path><path d="M199.07,54.87a.1.1,0,0,0,0,.21A.1.1,0,0,0,199.07,54.87Z" fill="#f9b2ac"></path><path d="M200.15,54.83a.1.1,0,0,0,0,.21A.1.1,0,0,0,200.15,54.83Z" fill="#f9b2ac"></path><path d="M199.24,54.09a.1.1,0,0,0,0,.21A.1.1,0,0,0,199.24,54.09Z" fill="#f9b2ac"></path><path d="M198.2,53.42a.1.1,0,0,0,0,.21A.1.1,0,0,0,198.2,53.42Z" fill="#f9b2ac"></path><path d="M199.46,52.82a.1.1,0,0,0,0,.21A.1.1,0,0,0,199.46,52.82Z" fill="#f9b2ac"></path><path d="M199.31,53.1a.1.1,0,0,0,0,.21A.1.1,0,0,0,199.31,53.1Z" fill="#f9b2ac"></path><path d="M198.14,52.92a.1.1,0,0,0,0,.21A.1.1,0,0,0,198.14,52.92Z" fill="#f9b2ac"></path><path d="M197,53.72a.1.1,0,0,0,0,.21A.1.1,0,0,0,197,53.72Z" fill="#f9b2ac"></path><path d="M201.15,54.83a.1.1,0,0,0,0,.21A.1.1,0,0,0,201.15,54.83Z" fill="#f9b2ac"></path><path d="M202.06,54a.1.1,0,0,0,0,.21A.1.1,0,0,0,202.06,54Z" fill="#f9b2ac"></path><path d="M200.53,54.27a.1.1,0,0,0,0,.21A.1.1,0,0,0,200.53,54.27Z" fill="#f9b2ac"></path><path d="M200.92,53a.1.1,0,0,0,0,.21A.1.1,0,0,0,200.92,53Z" fill="#f9b2ac"></path><path d="M202,53.29a.1.1,0,0,0,0,.21A.1.1,0,0,0,202,53.29Z" fill="#f9b2ac"></path><path d="M187.54,59.49l6.28-2.11s4.94-4.2,5.46-3.83S195.92,59,195.92,59s7.25-1,8.43.13c1.81,1.8.81,7.11-4.11,7.4-1.06.06-13.5-2.23-13.5-2.23" fill="#ffc388"></path><path d="M191.62,57.82c-3.19-1.26-9.15-1-13.7-1.77-5.88-.66-11.46-2.38-11.7,3.95-.27,7,19.06,7.22,24.58,7.13A14.89,14.89,0,0,0,191.62,57.82Z" fill="#5b5ea5"></path><path d="M176.3,56.9c-.42.15-9.53-12.56-14.74-13.81s-9.49,1.42-8.68,5.33,10.67,13.23,15.93,15.43" fill="#5b5ea5"></path><polyline points="273.42 139.92 273.42 175.58 276.06 175.58 276.63 139" fill="gray"></polyline><polyline points="288.43 126.2 293.72 164.97 291.08 164.97 285.55 127.64" fill="gray"></polyline><path d="M235.12,153.31s-2.46,8.07-3,8.89-8.61,6.15-8.48,7.79,3.18,2.32,5.08,2.19,12.83-4.7,13.52-6,.68-12.83.68-12.83Z" fill="#5c2d1d"></path><path d="M248.09,162.75s-2.46,8.07-3,8.89-8.61,6.15-8.48,7.79,3.18,2.32,5.08,2.19,12.83-4.7,13.52-6,.68-12.83.68-12.83Z" fill="#5c2d1d"></path><path d="M289.87,89.34c-.7,2-4.65,31.7-4.65,31.7l-4-1.33,5.18-30.53" fill="gray"></path><polyline points="288.43 126.2 288.51 121.41 284.27 122.86 285.55 127.64" fill="#a9cbf8"></polyline><path d="M278.85,118.78s10.65,4.09,9.58,8.11-9.57,13.87-15,13-12.09-5.59-12.09-5.59" fill="#4a42a4"></path><path d="M278.85,113.89S289.5,118,288.43,122s-9.57,13.87-15,13-12.09-5.59-12.09-5.59" fill="#a6aced"></path><path d="M283.07,76.54S293.35,79.11,294.4,85s1.34,16.84-13.26,12.6-7.71-15.21-7.71-15.21" fill="#a6aced"></path><path d="M269.34,89.18s3.63,15.26.94,23.43-18,14.72-18,14.72l-6.45,32.85c-8.57,2.69-15.94-1.88-15.94-1.88s1.78-29,4.5-36.35,23.77-21.81,23.77-21.81" fill="#895851"></path><path d="M270,108.59S248.9,123,246.18,130.4s-4.5,36.35-4.5,36.35,7.37,4.58,15.94,1.88l6.45-32.85s11-3.13,13.64-11.3,1.58-20.58,1.58-20.58" fill="#895851"></path><path d="M278.32,108.89c3.59-8.74,5.15-31.45,2.92-34.19-4.61-5.67-14.33-5-14.33-5s-5.65-3.38-10.37.62c-3.52,3-1,21.26,0,32.88C262.69,108.9,269.49,110.49,278.32,108.89Z" fill="#8cc63f"></path><path d="M263.23,111.5c-3.79,3.78-7.85,7.43-11.38,11.46-3.06,3.5-4.27,7.95-5.46,12.35-2.77,10.26-4,20.85-5.23,31.38-.07.64.93.63,1,0,1.18-10.13,2.38-20.31,5-30.2,1.26-4.85,2.53-9.67,6-13.44s7.21-7.24,10.82-10.84A.5.5,0,0,0,263.23,111.5Z" fill="#5c2d1d"></path><path d="M227.91,100.6s7.33,2.58,6.72,9.37c0,0,11.43-4.76,14-7.79s7.93-9.6,7.93-9.6V70.34s-13.83,21.48-16.82,24.07C237.31,96.49,227.91,100.6,227.91,100.6Z" fill="#8cc63f"></path><path d="M265.76,66.69c0,1.87,0,3.74-.05,5.61.34.86.81,1.45,1.49,1.38,2.23-.24,4.88-3.57,4.88-3.57l.39-5.2Z" fill="#f9c7af"></path><path d="M276.62,53.77c-1.39-3-4.13-3.57-7-3a6.21,6.21,0,0,0-2.14-1A6.72,6.72,0,0,0,260.73,52a4.56,4.56,0,0,0-2.27.3c-2.13.9-2.39,3.17-1.89,5.16,0,.08,0,.15.08.23.22,3.53,3.66,5,3.66,5l11.05,5.51a8,8,0,0,0,2.94-2.76,4.26,4.26,0,0,0,.45-1.45,1.68,1.68,0,0,0,.22-.22C277.12,61,278.14,57.06,276.62,53.77Z" fill="#895851"></path><path d="M260,59.84c.28,1.18,2.27,12.38,7.32,11.44s5.37-8.4,5.37-8.4-4.58-1.24-4.94-3-.18-2.47-2.42-2.93S259.56,57.88,260,59.84Z" fill="#ffe0ce"></path><polygon points="255.62 93.7 254.9 82.76 251.6 98.59 255.62 93.7" fill="#6d9928"></polygon><path d="M256,112.35a3.67,3.67,0,0,0-1.26.38c-1.2.58-2.52,1-3.71,1.6a12.26,12.26,0,0,0-4.65,4.88c-.24.53-1.26,2.44-.73,3s1.73,0,1.73,0-.06,1.1.32,1.35,1.53-.64,1.53-.64.52,1.34,1.25,1,2-2.24,2-2.24-.14,1.47.5,1.47,3.36-3.74,3.36-3.74l5.75-3s-1.7-1.84-1.87-2a8.71,8.71,0,0,0-2.7-1.83A3.35,3.35,0,0,0,256,112.35Z" fill="#ffe0ce"></path><path d="M255,117.21a13.09,13.09,0,0,0-2.86,4.9c-.07.22.28.32.35.1a12.65,12.65,0,0,1,2.77-4.73C255.44,117.29,255.18,117,255,117.21Z" fill="#5c2d1d"></path><path d="M253.33,116.08a14.14,14.14,0,0,0-4.24,7.07.18.18,0,0,0,.35.1,13.8,13.8,0,0,1,4.14-6.91C253.77,116.18,253.51,115.92,253.33,116.08Z" fill="#5c2d1d"></path><path d="M251.62,115.69a14.84,14.84,0,0,0-4.42,6.59c-.08.22.28.32.35.1a14.48,14.48,0,0,1,4.33-6.42C252.06,115.8,251.8,115.54,251.62,115.69Z" fill="#5c2d1d"></path><path d="M281.58,93.4s-2.11,13.47-4.95,16.57-15.3,8.63-15.3,8.63-3.12-5.49-6.43-6.79c0,0,12.71-7.14,13-8.49" fill="#8cc63f"></path><path d="M271.13,84.38c-.21,2.91-.51,5.8-.93,8.68a41.74,41.74,0,0,1-1.41,7.65c-.93,2.65-4.47,4.22-6.72,5.68s-4.77,3-7.18,4.52c-.55.33,0,1.2.5.86q4.23-2.58,8.37-5.29c1.87-1.23,4.72-2.5,5.71-4.65,1.08-2.34,1.25-5.51,1.63-8,.47-3.12.81-6.26,1-9.41C272.17,83.74,271.17,83.74,271.13,84.38Z" fill="#6d9928"></path><rect x="151.65" y="106.4" width="7.45" height="86.43" rx="3.72" ry="3.72" transform="translate(41.97 -33.86) rotate(14.36)" fill="#d37e6a"></rect><rect x="202.22" y="142.81" width="7.45" height="86.43" rx="3.72" ry="3.72" fill="#d37e6a"></rect><rect x="256.35" y="104.46" width="7.45" height="86.43" rx="3.72" ry="3.72" transform="translate(-26.26 61.3) rotate(-12.8)" fill="#d37e6a"></rect><ellipse cx="206.67" cy="141.01" rx="67.89" ry="38.31" fill="#ce4823"></ellipse><ellipse cx="206.67" cy="134.43" rx="67.89" ry="38.31" fill="#d66449"></ellipse><path d="M181.48,111.56l-7.37,4.28s.41,6.25,8,5.28l13.6-7.45" fill="url(#linear-gradient)" style="mix-blend-mode: multiply;"></path><ellipse cx="189.68" cy="110.92" rx="8.2" ry="4.05" fill="#e9a80f"></ellipse><path d="M197.88,100.13v11s-6.1,5.65-16.39.09V100.13" fill="#e9a80f"></path><path d="M182.71,104.06s-1.36-2.08-2.64-.88-.16,5.35,3.6,5.75v1.68s-4.71-.64-5.35-4.87,2.4-4.89,3.91-3.72" fill="#e9a80f"></path><ellipse cx="189.68" cy="100.17" rx="8.2" ry="4.05" fill="#e9a80f"></ellipse><path d="M189.68,98.24c3.79,0,7,1.27,7.91,3a2.19,2.19,0,0,0,.28-1.06c0-2.24-3.67-4.05-8.2-4.05s-8.2,1.81-8.2,4.05a2.19,2.19,0,0,0,.28,1.06C182.71,99.51,185.89,98.24,189.68,98.24Z" fill="#093e3e" opacity="0.29"></path><path d="M189.68,104.23c3.79,0,7-1.27,7.91-3-.94-1.73-4.13-3-7.91-3s-7,1.27-7.91,3C182.71,103,185.89,104.23,189.68,104.23Z" fill="#913b24"></path><path d="M224.61,116.22l-7.37,4.28s.41,6.25,8,5.28l13.6-7.45" fill="url(#linear-gradient-2)" style="mix-blend-mode: multiply;"></path><ellipse cx="232.81" cy="115.58" rx="8.2" ry="4.05" fill="#e9a80f"></ellipse><path d="M241,104.78v11s-6.1,5.65-16.39.09V104.78" fill="#e9a80f"></path><path d="M225.84,108.72s-1.36-2.08-2.64-.88-.16,5.35,3.6,5.75v1.68s-4.71-.64-5.35-4.87,2.4-4.89,3.91-3.72" fill="#e9a80f"></path><ellipse cx="232.81" cy="104.83" rx="8.2" ry="4.05" fill="#e9a80f"></ellipse><path d="M232.81,102.89c3.79,0,7,1.27,7.91,3a2.19,2.19,0,0,0,.28-1.06c0-2.24-3.67-4.05-8.2-4.05s-8.2,1.81-8.2,4.05a2.19,2.19,0,0,0,.28,1.06C225.83,104.16,229,102.89,232.81,102.89Z" fill="#093e3e" opacity="0.29"></path><path d="M232.81,108.88c3.79,0,7-1.27,7.91-3-.94-1.73-4.13-3-7.91-3s-7,1.27-7.91,3C225.83,107.61,229,108.88,232.81,108.88Z" fill="#913b24"></path><ellipse cx="206.67" cy="155.82" rx="19.34" ry="10.7" fill="#e9a80f"></ellipse><ellipse cx="206.67" cy="155.82" rx="19.34" ry="10.7" fill="#093e3e" opacity="0.29"></ellipse><ellipse cx="206.67" cy="154.65" rx="19.34" ry="10.7" fill="#e9a80f"></ellipse><ellipse cx="206.67" cy="154.56" rx="13.44" ry="6.87" fill="#093e3e" opacity="0.29"></ellipse><ellipse cx="234.15" cy="148.02" rx="11.35" ry="6.28" fill="#e9a80f"></ellipse><ellipse cx="234.15" cy="148.02" rx="11.35" ry="6.28" fill="#093e3e" opacity="0.29"></ellipse><ellipse cx="234.15" cy="147.33" rx="11.35" ry="6.28" fill="#e9a80f"></ellipse><ellipse cx="234.15" cy="147.28" rx="7.89" ry="4.03" fill="#093e3e" opacity="0.29"></ellipse><path d="M153.68,205l-1.23-.92,1.08-14.52,6.39.23s-.33,6.21,1,7.73,5.2.78,5.56.93,2.92-.4,4,.84-4.15,4.23-6.82,4.65a17,17,0,0,1-5.48-.19s-.3-3.76-1.24-3.46-1.29,4.23-1.29,4.23Z" fill="#9c4100"></path><path d="M151.05,159.31c-.53,15.19-1.09,35-1.09,35s3.47,4.71,12.88,2.7c1-.22,3.25-24.43,4.36-37A36.13,36.13,0,0,0,151.05,159.31Z" fill="#653200"></path><path d="M252.63,218.85l1.23-.92-1.08-14.52-6.39.23s.33,6.21-1,7.73-5.2.78-5.56.93-2.92-.4-4,.84,4.15,4.23,6.82,4.65a17,17,0,0,0,5.48-.19s.3-3.76,1.24-3.46,1.29,4.23,1.29,4.23Z" fill="#a07def"></path><path d="M255.26,173.13c.53,15.19,1.09,35,1.09,35s-3.47,4.71-12.88,2.7c-1-.22-3.25-24.43-4.36-37A36.13,36.13,0,0,1,255.26,173.13Z" fill="#b52d2d"></path><path d="M161.79,136.18l-62,37.32,19,6.94c14.75-11.61,43.6-25.34,58.43-36.87q-2.25-1.55-4.22-3C160.74,141.38,170.54,145.58,161.79,136.18Z" opacity="0.32" fill="url(#linear-gradient-3)"></path><path d="M39,191c2.82,1.61,6.34,2.81,9.12,4.49,11.36-6.71,22.18-12.85,33.76-19.18C71.07,171.11,61.93,166.1,57,161.79q-18.6,7.56-36.77,16.11C26.4,182.42,32.3,187.18,39,191Z" fill="url(#linear-gradient-4)" style="mix-blend-mode: multiply;"></path><path d="M53.84,141.11c1.25-1.56,2.45-3.16,3.59-4.82a2.61,2.61,0,0,1,4.7.61,14.36,14.36,0,0,0,2.2,4.42,36,36,0,0,0,3.93-5.06c.83-1.29,2.92-1.84,4-.52A45.22,45.22,0,0,0,78,141.39a45.86,45.86,0,0,0,5.19-8.07,2.15,2.15,0,0,1,.53-.67,32.23,32.23,0,0,0-4.32-5.11,19.23,19.23,0,0,0-7.69-4.76,13.12,13.12,0,0,0-5.08-.52c-4.44.44-8.19,3.5-10.73,6.58a38.45,38.45,0,0,0-4.9,7.75l0,0Z" fill="#e9a80f"></path><path d="M47.43,164.75a20.65,20.65,0,0,0,8.42,12.51A20.36,20.36,0,0,1,82.5,177c3.67-2.85,5.87-7,7-11.62-5.6,3.06-12.61,3.58-19,3.6A58.45,58.45,0,0,1,47.43,164.75Z" fill="#e9a80f"></path><path d="M61.09,179.71a28.72,28.72,0,0,0,8.79,1.16,23.83,23.83,0,0,0,7.6-1.23A15.07,15.07,0,0,0,61.09,179.71Z" fill="#e9a80f"></path><path d="M46.44,154.77c0,1.28,0,2.57,0,3.83,6.93,3.66,14.75,5.07,22.59,5.18,6.8.09,16.41.09,21.38-5.46,0-1,0-2.07,0-3.11-7.13,2.53-14.86,3.24-22.44,3.21C60.8,158.41,53,157.88,46.44,154.77Z" fill="#e9a80f"></path><path d="M68.76,153.29c7.23,0,14.57-.74,21.27-3.4a48.49,48.49,0,0,0-1.25-6.13c-.26-1-.56-1.9-.9-2.84l-1.93-2a51.29,51.29,0,0,1-5.79,7.83,2.57,2.57,0,0,1-3.12.4,51.09,51.09,0,0,1-6.3-5.47A41.41,41.41,0,0,1,66,146.91a2.62,2.62,0,0,1-3.64,0,19.72,19.72,0,0,1-3.3-4.21q-1.79,2.35-3.73,4.58a2.6,2.6,0,0,1-4-.52l-2.7-4.28c-.15.48-.3,1-.44,1.44A47,47,0,0,0,47,149.24C53.34,153,61.45,153.31,68.76,153.29Z" fill="#e9a80f"></path><path d="M55.36,147.28q1.94-2.23,3.73-4.58a19.72,19.72,0,0,0,3.3,4.21,2.62,2.62,0,0,0,3.64,0,41.41,41.41,0,0,0,4.71-5.24,51.09,51.09,0,0,0,6.3,5.47,2.57,2.57,0,0,0,3.12-.4A51.29,51.29,0,0,0,86,138.92l1.93,2a36.19,36.19,0,0,0-4.19-8.28,2.15,2.15,0,0,0-.53.67A45.86,45.86,0,0,1,78,141.39a45.22,45.22,0,0,1-5.67-5.64c-1.12-1.32-3.21-.77-4,.52a36,36,0,0,1-3.93,5.06,14.36,14.36,0,0,1-2.2-4.42,2.61,2.61,0,0,0-4.7-.61c-1.14,1.66-2.34,3.26-3.59,4.82L51,136.62l0,0a45.49,45.49,0,0,0-2.35,5.9l2.7,4.28A2.6,2.6,0,0,0,55.36,147.28Z" fill="#e24e47"></path><path d="M68.76,153.29c-7.31,0-15.42-.28-21.76-4.06a44.63,44.63,0,0,0-.56,5.53C53,157.88,60.8,158.41,68,158.44c7.58,0,15.31-.68,22.44-3.21A49,49,0,0,0,90,149.9C83.33,152.56,76,153.28,68.76,153.29Z" fill="#ff7384"></path><path d="M69.08,163.78c-7.84-.11-15.66-1.52-22.59-5.18a32.6,32.6,0,0,0,.94,6.14,58.45,58.45,0,0,0,23.08,4.19c6.39,0,13.39-.54,19-3.6a35.66,35.66,0,0,0,1-7C85.49,163.88,75.87,163.88,69.08,163.78Z" fill="#e24e47"></path><path d="M55.85,177.26a20.25,20.25,0,0,0,5.25,2.45,15.07,15.07,0,0,1,16.39-.07,17.48,17.48,0,0,0,5-2.69A20.36,20.36,0,0,0,55.85,177.26Z" fill="#f49a22"></path><path d="M63.26,126.83c-3.31,0-3.32,5.14,0,5.14S66.58,126.83,63.26,126.83Z" fill="#16a79e"></path><path d="M74.61,126.83c-3.31,0-3.32,5.14,0,5.14S77.93,126.83,74.61,126.83Z" fill="#16a79e"></path><path d="M321.55,207.5c2.82,1.61,6.34,2.81,9.12,4.49,11.36-6.71,22.18-12.85,33.76-19.18-10.79-5.2-19.94-10.21-24.86-14.52Q321,185.85,302.8,194.4C309,198.92,314.87,203.68,321.55,207.5Z" fill="url(#linear-gradient-5)" style="mix-blend-mode: multiply;"></path><path d="M349,175.61a85,85,0,0,1-21.15-10.42q-.17,1.12-.28,2.24c.91.72,1.86,1.35,2.65,1.87A48.34,48.34,0,0,0,337,173c5,2.31,10.28,3.93,15.47,5.75,5.58,2,11.9,4.28,16.56,8.2q.32-.6.61-1.22C365,179.92,355.52,177.86,349,175.61Z" fill="#e9a80f"></path><path d="M340.18,161.76c5.78,2.72,11.82,4.83,17.75,7.18a66.59,66.59,0,0,1,14.14,7.2,48.82,48.82,0,0,0-1.55-17,35.8,35.8,0,0,0-9.58-16.53,19.58,19.58,0,0,0-7.83-4.84,13.36,13.36,0,0,0-5.17-.53c-4.52.45-8.34,3.57-10.93,6.69A41.38,41.38,0,0,0,330.24,156a17.23,17.23,0,0,0,1.75,1.3A65.94,65.94,0,0,0,340.18,161.76Z" fill="#e9a80f"></path><path d="M332.87,179.94a50.82,50.82,0,0,1-5.17-3.19c1.46,11,8.13,20.28,23.58,20.11,5.53-.06,9.74-1.57,12.88-4-5.22-4.16-12.21-6-18.46-7.94A71.41,71.41,0,0,1,332.87,179.94Z" fill="#e9a80f"></path><path d="M348.87,172.42a128.06,128.06,0,0,1-17.55-7.88c-1-.57-2-1.19-3-1.86q-.26,1.25-.45,2.52A85,85,0,0,0,349,175.61c6.48,2.25,16,4.3,20.58,10.16a24.89,24.89,0,0,0,1.06-2.7C365,177.62,355.15,174.84,348.87,172.42Z" fill="#ff7384"></path><path d="M366.6,190.52c-5.61-5.16-14.91-7.36-21.39-9.62a82.7,82.7,0,0,1-15.08-6.52c-.89-.53-1.82-1.09-2.73-1.7a37,37,0,0,0,.31,4.07,50.82,50.82,0,0,0,5.17,3.19,71.41,71.41,0,0,0,12.83,5c6.25,1.91,13.24,3.78,18.46,7.94A17.3,17.3,0,0,0,366.6,190.52Z" fill="#ff7384"></path><path d="M329.08,159.64c7.8,6,16.67,9.29,25.89,12.48,5.79,2,12,4.19,16.46,8.21a35.13,35.13,0,0,0,.66-4.19,66.59,66.59,0,0,0-14.14-7.2c-5.93-2.35-12-4.46-17.75-7.18a65.94,65.94,0,0,1-8.18-4.46,17.23,17.23,0,0,1-1.75-1.3c-.4,1.08-.75,2.17-1.06,3.26Z" fill="#cc3637"></path><path d="M329.08,159.64q-.41,1.49-.73,3c1,.67,2,1.29,3,1.86a128.06,128.06,0,0,0,17.55,7.88c6.28,2.43,16.11,5.2,21.81,10.65.29-.89.54-1.81.74-2.74-4.5-4-10.67-6.2-16.46-8.21C345.75,168.93,336.88,165.62,329.08,159.64Z" fill="#cc3637"></path><path d="M337,173a48.34,48.34,0,0,1-6.72-3.73c-.78-.53-1.74-1.15-2.65-1.87q-.13,1.3-.19,2.61a51.87,51.87,0,0,0,10.14,6.39c4.27,2,8.88,3.19,13.37,4.58,6,1.88,11.94,4.2,16.76,8.12A20.14,20.14,0,0,0,369,187c-4.66-3.92-11-6.25-16.56-8.2C347.27,177,342,175.36,337,173Z" fill="#cc3637"></path><path d="M327.39,172.68c.91.61,1.84,1.18,2.73,1.7a82.7,82.7,0,0,0,15.08,6.52c6.48,2.25,15.78,4.46,21.39,9.62q.58-.67,1.09-1.38c-4.81-3.92-10.71-6.24-16.76-8.12-4.49-1.39-9.09-2.59-13.37-4.58A51.87,51.87,0,0,1,327.42,170Q327.37,171.37,327.39,172.68Z" fill="#cc3637"></path><path d="M367.26,162.38a2.8,2.8,0,0,0-1.92-2,2.59,2.59,0,0,0-.54-.08,5.11,5.11,0,0,0-.22-.92,1.55,1.55,0,0,0-2.79-.36,5,5,0,0,0-.55,1.64,2.6,2.6,0,0,0-2.31,1.67,2.29,2.29,0,0,0,1.52,2.83,2.38,2.38,0,0,0,.82.13c.27,1,.91,2.09,2.06,2.09s1.9-1.13,2.14-2.12a3.7,3.7,0,0,0,.08-.48A1.93,1.93,0,0,0,367.26,162.38Z" fill="#fff7e9"></path><path d="M344.52,186.94A2.47,2.47,0,0,0,342,185a4.14,4.14,0,0,0-1,.16c-.07-1.35-.52-2.6-2.1-2.44-1.24.13-1.63,1.2-1.68,2.39a3.33,3.33,0,0,0-.53-.19c-1.15-.29-2.64,0-3,1.32-.46,1.84,1.54,2.7,3.32,3a2.64,2.64,0,0,0,.57,2.27,2.58,2.58,0,0,0,3,.53,2.93,2.93,0,0,0,1.55-2.56c0-.06,0-.11,0-.16C343.56,189.14,344.78,188.53,344.52,186.94Z" fill="#fff7e9"></path><path d="M357.1,189.82a2.08,2.08,0,0,0-1.94-2,7.69,7.69,0,0,0-.78-1.2,1.54,1.54,0,0,0-2.16,0l-.05.06a1.35,1.35,0,0,0-.54,1.17c0,.19,0,.39,0,.6l0,0a1.74,1.74,0,0,0-1.09,2.26,1.9,1.9,0,0,0,1.71,1.09,3.48,3.48,0,0,0,1,1.37,1.55,1.55,0,0,0,2.55-.67,7.18,7.18,0,0,0,.14-.87A1.9,1.9,0,0,0,357.1,189.82Z" fill="#fff7e9"></path><path d="M354,148.86a4.32,4.32,0,0,0-3-3,4,4,0,0,0-.83-.13,7.9,7.9,0,0,0-.34-1.42c-.63-1.82-3.29-2.45-4.31-.56a7.71,7.71,0,0,0-.84,2.53,4,4,0,0,0-3.56,2.58,3.53,3.53,0,0,0,2.35,4.38,3.68,3.68,0,0,0,1.26.2c.41,1.52,1.41,3.22,3.18,3.22s2.94-1.74,3.3-3.27a5.72,5.72,0,0,0,.12-.74A3,3,0,0,0,354,148.86Z" fill="#fff7e9"></path><path d="M158.54,173.52c-3.72-2.6-8.1-4-12.83-3-5,1.11-9.4,4.28-14.54,5.05-.81.12-4.05-.09-4.55.38-14.29,13.52,25.66,12.08,25.66,12.08,3.88-3.17,7.53-6.3,11.38-9.51C162.49,175.94,160.53,174.91,158.54,173.52Z" fill="#f8997c"></path><path d="M139.74,193.12l-1.42,40.8c-.05,1.55,2.35,1.55,2.4,0l1.42-40.8C142.2,191.58,139.79,191.58,139.74,193.12Z" fill="#844040"></path><path d="M169.69,215q-10.91-10.68-20.85-22.29c-1-1.18-2.7.53-1.7,1.7Q157.07,206,168,216.66C169.1,217.74,170.8,216,169.69,215Z" fill="#844040"></path><path d="M131.4,189.35q-8.47,16-16,32.47c-.64,1.4,1.44,2.62,2.08,1.21q7.48-16.48,16-32.47C134.2,189.2,132.13,188,131.4,189.35Z" fill="#844040"></path><path d="M163,177.33a19.35,19.35,0,0,1-9.68,7c-5.46,1.64-13.4.86-16.27-4.76-5.22-10.23-.32-23-5.83-33a10.1,10.1,0,0,0-6.39-5.18c-3.57-.77-6,1.88-7.32,5-2.32,5.58-2.24,12.53-2.13,18.48a99.42,99.42,0,0,0,1.06,14.36s3.34,19.94,29.38,14.59a39.53,39.53,0,0,0,12.79-4.67,17.56,17.56,0,0,0,5.22-4.53C165.42,182.34,164.36,179.63,163,177.33Z" fill="#e9a80f"></path><path d="M164.14,179.67a1.64,1.64,0,0,0-2.74-.48,18.42,18.42,0,0,1-8.09,5.15c-5.46,1.64-13.4.86-16.27-4.76-5.2-10.19-.35-22.94-5.77-32.88a11,11,0,0,0-4.07-4.33c-4.89-2.82-8.15.27-9.71,4-2.32,5.58-2.24,12.53-2.13,18.48a99.42,99.42,0,0,0,1.06,14.36s3.34,19.94,29.38,14.59a39.53,39.53,0,0,0,12.79-4.67,17.56,17.56,0,0,0,5.22-4.53A5.12,5.12,0,0,0,164.14,179.67Z" fill="#e9a80f"></path><path d="M128.82,162s-1.75,21.39,9.54,23.43c20.23,3.66,25.53-8.53,25.53-8.53l-9.32-16.41" fill="#653200"></path><path d="M171.68,219.34l-1.23-.92,1.08-14.52,6.39.23s-.33,6.21,1,7.73,5.2.78,5.56.93,2.92-.4,4,.84-4.15,4.23-6.82,4.65a17,17,0,0,1-5.48-.19s-.3-3.76-1.24-3.46-1.29,4.23-1.29,4.23Z" fill="#9c4100"></path><path d="M174.42,163.9a38.08,38.08,0,0,0-13.31-3.32c.78,5.69,1.5,9.63,1.63,9.92.31.72,6.15,36.81,6.15,36.81,6.91,2.79,15.07.46,15.07.46s-2.81-28.16-3-32.86q0-.76-.08-1.52A11.07,11.07,0,0,0,174.42,163.9Z" fill="#653200"></path><path d="M156,129.27c-3.47,1.9-8.9,4.07-12.54,6.58-.59.41-1.46,1.79-.88,1.59-.25.28,2.14,1.22,1.92,1.53-.07.1,1.54-.79,1.63-.75v0a6.25,6.25,0,0,0,4.47.54l.6-.44,0,0,.15-.09a.35.35,0,0,1,.11-.11l.09-.07a.36.36,0,0,1,.14-.22c.8-.63,2.56-1,2.75-2a2.18,2.18,0,0,0-.25-.8.3.3,0,0,1,.07-.41,2.44,2.44,0,0,0-.36-1.85l0-.05.2-.24a23.47,23.47,0,0,0,2.68-2.2A.55.55,0,0,0,157,130a.46.46,0,0,0,0-.16A.65.65,0,0,0,156,129.27Z" fill="#ffd1ae"></path><path d="M154.25,133c-.26-.67-.64-.7-1.24-.44a20.9,20.9,0,0,0-3.46,2c-.18.12,0,.42.18.29.68-.46,3.61-2.62,4.2-1.68s-1.37,1.6-1.92,1.89l-2.11,1.12c-.2.1,0,.4.18.29l1.36-.69a.17.17,0,0,0,0,.1,2.05,2.05,0,0,0,.4.4,1.29,1.29,0,0,0-.15,1.2l.06.07a3.77,3.77,0,0,1-4.61.67c-.18-.13-.41.12-.24.25,1.37,1,4.21.74,5.17-.79a1.88,1.88,0,0,0,.62-.2,4.06,4.06,0,0,0,1.63-1.07,1.36,1.36,0,0,0,0-1.38l0-.06a.86.86,0,0,0,0-1.23A1.31,1.31,0,0,0,154.25,133Zm-.15,3.12a2.18,2.18,0,0,1-.89.72c-.22.13-.76.52-1,.46-.44-.11-.17-.69,0-.95h0a2.41,2.41,0,0,0,.68-.4l.84-.53.28-.21A1.06,1.06,0,0,1,154.1,136.15ZM153,135.5c-.48.3-.87.67-1.32.14.67-.34,1.35-.69,2-1.08a1.6,1.6,0,0,0,.5-.45C154.54,134.71,153.38,135.28,153,135.5Z" fill="#653200"></path><path d="M145.64,133.24s2.34.53,2.52,5.44L146.4,143l-9.54-4.95S139.15,135.23,145.64,133.24Z" fill="#88d3d8"></path><path d="M132.65,135.42l3.45-1c.85.12,8.31,3.17,11.41,8.48a33.17,33.17,0,0,1,.76,4.92c.28,2.21.51,4.43.62,6.65a48.47,48.47,0,0,1-.11,7.27c-.11,1-.17,1.55-.35,2.58a4.59,4.59,0,0,1-1.36.82c-10.34,3.59-17.92-2.23-18.24-3.06s-.8-12.76-1-19.85A6.82,6.82,0,0,1,132.65,135.42Z" fill="#88d3d8"></path><path d="M141.77,123.74s2.33,11.68-2,12.94-9.37-3.61-9.74-6S135.74,119.84,141.77,123.74Z" fill="#ffd1ae"></path><path d="M140.11,128.41c.13-.2,2.61-.85,3.13-2.93s-1.37-4.82-5.67-5.21-11.53,2-10.42,13.29,12.52,6.46,13.26,2.84A21.69,21.69,0,0,0,140.11,128.41Z" fill="#653200"></path><path d="M140.11,128.41s.72,3.87,2.29,5.53,2.84,4.7.92,7,0,3.56,2.71,5.77,1,11.2-8.77,9-14.44-8.13-14.44-8.13,2.52-17.65,5.19-21.78" fill="#653200"></path><path d="M148.77,161.71a32.41,32.41,0,0,1,12.34-1.13c6,.86,10.61,17-4,23" fill="#653200"></path><path d="M146.4,143s7.16,6.71,9.27,7.44,6.14-1.69,9.43-5.31a6.23,6.23,0,0,1,5.26,7.38s-14.29,12.54-24.49,6.14" fill="#88d3d8"></path><path d="M249.52,186c3.72-2.6,8.1-4,12.83-3,5,1.11,9.4,4.28,14.54,5.05.81.12,4.05-.09,4.55.38,14.29,13.52-25.66,12.08-25.66,12.08-3.88-3.17-7.53-6.3-11.38-9.51C245.57,188.4,247.53,187.38,249.52,186Z" fill="#f8997c"></path><path d="M268.32,205.59l1.42,40.8c.05,1.55-2.35,1.55-2.4,0l-1.42-40.8C265.86,204,268.27,204,268.32,205.59Z" fill="#844040"></path><path d="M238.37,227.42q10.91-10.68,20.85-22.29c1-1.18,2.7.53,1.7,1.7q-9.93,11.6-20.85,22.29C239,230.2,237.26,228.5,238.37,227.42Z" fill="#844040"></path><path d="M276.66,201.81q8.47,16,16,32.47c.64,1.4-1.44,2.62-2.08,1.21q-7.48-16.48-16-32.47C273.86,201.66,275.93,200.44,276.66,201.81Z" fill="#844040"></path><path d="M245.07,189.8a19.35,19.35,0,0,0,9.68,7c5.46,1.64,13.4.86,16.27-4.76,5.22-10.23.32-23,5.83-33a10.1,10.1,0,0,1,6.39-5.18c3.57-.77,6,1.88,7.32,5,2.32,5.58,2.24,12.53,2.13,18.48a99.42,99.42,0,0,1-1.06,14.36s-3.34,19.94-29.38,14.59a39.53,39.53,0,0,1-12.79-4.67,17.56,17.56,0,0,1-5.22-4.53C242.64,194.81,243.7,192.09,245.07,189.8Z" fill="#e9a80f"></path><path d="M243.92,192.13a1.64,1.64,0,0,1,2.74-.48,18.42,18.42,0,0,0,8.09,5.15c5.46,1.64,13.4.86,16.27-4.76,5.2-10.19.35-22.94,5.77-32.88a11,11,0,0,1,4.07-4.33c4.89-2.82,8.15.27,9.71,4,2.32,5.58,2.24,12.53,2.13,18.48a99.42,99.42,0,0,1-1.06,14.36s-3.34,19.94-29.38,14.59a39.53,39.53,0,0,1-12.79-4.67,17.56,17.56,0,0,1-5.22-4.53A5.12,5.12,0,0,1,243.92,192.13Z" fill="#e9a80f"></path><polyline points="243.75 188.93 239.11 189.66 241.68 176.71 246.54 172.57 256.35 172.74 247.73 189.66" fill="#e24e47"></polyline><path d="M278.83,174s1.27,21.67-14.36,23.57c-11.39,1.38-20.71-8.67-20.71-8.67l9.32-16.41" fill="#e24e47"></path><path d="M236,231.32l1.23-.92-1.08-14.52-6.39.23s.33,6.21-1,7.73-5.2.78-5.56.93-2.92-.4-4,.84,4.15,4.23,6.82,4.65a17,17,0,0,0,5.48-.19s.3-3.76,1.24-3.46,1.29,4.23,1.29,4.23Z" fill="#a07def"></path><path d="M233.23,175.88a38.08,38.08,0,0,1,13.31-3.32c-.78,5.69-1.5,9.63-1.63,9.92-.31.72-6.15,36.81-6.15,36.81-6.91,2.79-15.07.46-15.07.46s2.81-28.16,3-32.86q0-.76.08-1.52A11.07,11.07,0,0,1,233.23,175.88Z" fill="#e24e47"></path><path d="M248.26,144.12s-4.1,3.64-3.4,7.78c0,0,5.17,10.27,10.76,12s8.77-9.31,7.24-10.92S248.26,144.12,248.26,144.12Z" fill="#6949c1"></path><path d="M234.69,158.66s-2.51-.67-2.47-1.3-1.5-5.39-2.32-6.08c-1.46-1.22-1.25,3.09-1.25,3.09L225,148.53s-.77,2.86-.11,3.91,4.31,8.42,4.68,8.92,4,3.62,4,3.62" fill="#ffd1ae"></path><path d="M256.79,164.92c-.38-5.59-2.41-8.53-1.12-13.95,4-4.38,11.61-9.67,12.42-9.83l4.28,1a8.34,8.34,0,0,1,6.45,7.9c.23,8.67.56,23.14.2,24.29s-8.85,8.44-21.37,5.26C257.3,174.71,257.13,169.81,256.79,164.92Z" fill="#a07def"></path><path d="M258.39,131.92s-1.77,13,3,14.09,10.05-4.6,10.3-7.26S264.76,127.23,258.39,131.92Z" fill="#ffd1ae"></path><path d="M259.88,125.21c-.51.19-4.92,2.84-4.63,4.64s1,5.77,2.31,5.13,1.27-3,2.32-1.24,1.92,3.14,3,2.69a2.54,2.54,0,0,1,2,.09s0,9.37,1.12,8.76,5.66-2.56,7.31-5.4c1-1.79,1.3-5.12,1-7.82a8.46,8.46,0,0,0-1-3.64C272,126.55,263.47,123.86,259.88,125.21Z" fill="#fbb03b"></path><path d="M273.34,128.42s5.2,6.72,4.75,15-15.23,9.5-15.23,9.5l2-16.41" fill="#fbb03b"></path><path d="M230.69,159.53a7.85,7.85,0,0,1,4.61-5c4.07,3.85,9,8,10.68,7.38,2.4-1,7.18-12.13,14-12.7s6.61,8.85,6.61,8.85-11.87,18.32-18.31,18.64c-5.19.26-14.61-8.86-18.31-13.25A18.51,18.51,0,0,1,230.69,159.53Z" fill="#a07def"></path><path d="M247.19,145.11c.19-.08-5.15-4.44-5.15-4.44h-7.35s4.7,1,5.58,1.4c0,0-3.35,0-3.23.73s3.9.44,3.9.44.56,1.35,3.47,2.1l1.25,2.67Z" fill="#ffd1ae"></path><path d="M215.73,134.89a3.06,3.06,0,0,1-.53-.87c-1.59-3.95-5.63-6.38-9.22-8.63L187.05,136l12.12,7C204.71,140.35,210.22,137.61,215.73,134.89Z" opacity="0.48" fill="url(#linear-gradient-6)"></path><path d="M205.93,100.64s-4.5,3.17-4.5,10.76-.08,20.44,0,20.94.34,3.89,8.24,4,7.56-4,7.56-4V111.4s-.25-7.11-4.59-10.76Z" fill="#b9dcfa"></path><polyline points="205.41 97.18 205.41 100.75 213.22 100.75 213.22 97.18" fill="#e57967"></polyline><ellipse cx="209.31" cy="97.18" rx="3.91" ry="1.26" fill="#d0573d"></ellipse><ellipse cx="209.31" cy="100.75" rx="3.91" ry="1.26" fill="#e57967"></ellipse><polyline points="202.26 111.4 202.26 132.34 216.13 132.34 216.13 111.4" fill="#ff9e3e"></polyline><ellipse cx="209.2" cy="132.34" rx="6.94" ry="3.03" fill="#ff9e3e"></ellipse><ellipse cx="209.2" cy="111.4" rx="6.94" ry="3.03" fill="#ffb471"></ellipse><ellipse cx="170.37" cy="135.79" rx="16.96" ry="9.39" fill="#e9a80f"></ellipse><ellipse cx="170.37" cy="135.79" rx="16.96" ry="9.39" fill="#093e3e" opacity="0.29"></ellipse><ellipse cx="170.37" cy="134.77" rx="16.96" ry="9.39" fill="#e9a80f"></ellipse><ellipse cx="170.37" cy="134.69" rx="11.79" ry="6.03" fill="#093e3e" opacity="0.29"></ellipse><path d="M176.11,144.57a5.58,5.58,0,0,1-4.35.59,6,6,0,0,0-2.56,2.33,5.18,5.18,0,0,1,.72,2.81,7.31,7.31,0,0,0,3.3-1.38c2.11-1.41,8.7-4,9.58-6.48C181.59,143.12,178.16,143.84,176.11,144.57Z" fill="#ffd1ae"></path><path d="M171.76,145.16s3.12-2.86,4.74-3.13-2.37,3.26-2.37,3.26l-2.63,1.79Z" fill="#ffd1ae"></path></g></g></svg>