<?xml version="1.0" encoding="iso-8859-1"?>
<!-- Generator: Adobe Illustrator 16.0.0, SVG Export Plug-In . SVG Version: 6.00 Build 0)  -->
<!DOCTYPE svg PUBLIC "-//W3C//DTD SVG 1.1//EN" "http://www.w3.org/Graphics/SVG/1.1/DTD/svg11.dtd">
<svg version="1.1" id="Capa_1" xmlns="http://www.w3.org/2000/svg" xmlns:xlink="http://www.w3.org/1999/xlink" x="0px" y="0px"
	 width="410.758px" height="410.758px" viewBox="0 0 410.758 410.758" style="enable-background:new 0 0 410.758 410.758;"
	 xml:space="preserve">
<g>
	<path d="M350.604,60.153C311.812,21.362,260.237,0,205.379,0C150.521,0,98.945,21.362,60.154,60.153S0,150.52,0,205.378
		c0,54.858,21.363,106.437,60.154,145.227c38.791,38.791,90.366,60.153,145.225,60.153c54.859,0,106.434-21.362,145.225-60.153
		c38.791-38.79,60.154-90.366,60.154-145.227C410.758,150.521,389.395,98.944,350.604,60.153z M91.78,169.325
		c0-27.57,22.43-50,50-50c27.57,0,50,22.43,50,50c0,8.283-6.716,15-15,15c-8.284,0-15-6.717-15-15c0-11.027-8.972-20-20-20
		c-11.028,0-20,8.973-20,20c0,8.283-6.716,15-15,15C98.496,184.325,91.78,177.608,91.78,169.325z M292.355,289.648
		c-7.3,3.916-16.392,1.174-20.31-6.125c-12.427-23.154-36.397-38.406-62.562-39.806c-26.393-1.407-52.003,11.326-66.8,33.229
		c-1.435,2.125-2.771,4.337-3.973,6.574c-3.919,7.301-13.014,10.041-20.311,6.123c-7.3-3.918-10.041-13.012-6.123-20.311
		c1.68-3.127,3.544-6.215,5.545-9.178c19.625-29.049,52.843-46.543,87.713-46.543c1.844,0,3.696,0.049,5.548,0.146
		c36.559,1.953,70.047,23.248,87.396,55.576C302.397,276.636,299.655,285.73,292.355,289.648z M303.978,184.325
		c-8.283,0-15-6.717-15-15c0-11.027-8.972-20-20-20c-11.027,0-19.999,8.973-19.999,20c0,8.283-6.717,15-15,15
		c-8.285,0-15-6.717-15-15c0-27.57,22.43-50,49.999-50c27.57,0,50,22.43,50,50C318.978,177.608,312.262,184.325,303.978,184.325z"/>
</g>
<g>
</g>
<g>
</g>
<g>
</g>
<g>
</g>
<g>
</g>
<g>
</g>
<g>
</g>
<g>
</g>
<g>
</g>
<g>
</g>
<g>
</g>
<g>
</g>
<g>
</g>
<g>
</g>
<g>
</g>
</svg>
