<svg xmlns="http://www.w3.org/2000/svg" viewBox="0 0 400 300" width="406" height="306" class="illustration styles_illustrationTablet__1DWOa"><g id="_539_cocktail_flatline" data-name="#539_cocktail_flatline"><ellipse cx="198.5" cy="248.43" rx="76.05" ry="20.62" fill="#e6e7e8"></ellipse><path d="M305.53,202.77s-70-7.05-78.48-6.3-17.68,17.48-13.22,19.8,9.23-12.09,14.64-13.1,77.06,9.1,77.06,9.1Z" fill="#231f20"></path><path d="M214.85,217a2.67,2.67,0,0,1-1.25-.32c-.89-.47-1.84-1.64-1.26-4.57,1.19-6,8-15.59,14.67-16.17,8.43-.73,75.71,6,78.57,6.31a.49.49,0,0,1,.45.49v9.5a.5.5,0,0,1-.17.38.52.52,0,0,1-.4.12c-.71-.11-71.64-10.09-76.9-9.11-2.33.43-4.64,3.73-6.88,6.92S217.15,217,214.85,217Zm13.93-20.12c-.7,0-1.27,0-1.68.05-6,.53-12.65,9.68-13.78,15.37-.21,1.06-.39,2.91.74,3.5,2,1,4.33-2.3,6.8-5.82,2.36-3.35,4.79-6.82,7.52-7.33,5.23-1,69.42,8,76.66,9v-8.48C299.34,202.66,241.6,196.91,228.78,196.91Z" fill="#231f20"></path><path d="M194.47,264.24c-23.75,0-42.35-7.14-42.35-16.25L136.18,97.39a.5.5,0,0,1,.44-.55.5.5,0,0,1,.55.44l16,150.66c0,8.46,18.55,15.3,41.35,15.3s41.35-6.84,41.35-15.25l16-150.71a.5.5,0,0,1,1,.11L236.82,248C236.82,257.1,218.22,264.24,194.47,264.24Z" fill="#231f20"></path><path d="M194.47,117.28c-32.14,0-58.3-9-58.3-20s26.16-20,58.3-20,58.3,9,58.3,20S226.62,117.28,194.47,117.28Zm0-38.9c-31.59,0-57.3,8.5-57.3,19s25.71,19,57.3,19,57.3-8.5,57.3-19S226.06,78.38,194.47,78.38Z" fill="#231f20"></path><path d="M244.36,149.33,232,249.59s-12.6,11.5-40.37,10.31-35.15-11.27-35.15-11.27l-11.91-99.3Z" fill="#e9a80f"></path><path d="M195.52,260.48c-1.28,0-2.6,0-4-.08-27.69-1.19-35.22-11.06-35.53-11.48a.46.46,0,0,1-.09-.23L144,149.39a.51.51,0,0,1,.12-.39.5.5,0,0,1,.38-.17h99.84a.48.48,0,0,1,.37.17.52.52,0,0,1,.13.39L232.44,249.65a.47.47,0,0,1-.16.31C232.16,250.07,220.45,260.48,195.52,260.48Zm-38.61-12.05a21.94,21.94,0,0,0,7,5c4.8,2.39,13.51,5.37,27.7,6,25.7,1.1,38.43-8.87,39.86-10.07l12.32-99.5H145.08Z" fill="#231f20"></path><ellipse cx="194.44" cy="148.06" rx="49.92" ry="14.93" fill="#e9a80f"></ellipse><path d="M194.44,163.49c-28.28,0-50.42-6.78-50.42-15.43s22.14-15.43,50.42-15.43,50.42,6.78,50.42,15.43S222.71,163.49,194.44,163.49Zm0-29.86c-26.79,0-49.42,6.61-49.42,14.43s22.63,14.43,49.42,14.43,49.42-6.61,49.42-14.43S221.23,133.63,194.44,133.63Z" fill="#231f20"></path><path d="M173,145.63,153.47,73.68,150.05,76l19,70.6S170.53,148.06,173,145.63Z" fill="#fff"></path><path d="M170.32,147.53a2.4,2.4,0,0,1-1.6-.57.61.61,0,0,1-.13-.22l-19-70.6a.48.48,0,0,1,.2-.54l3.42-2.33a.48.48,0,0,1,.45-.06.5.5,0,0,1,.31.34l19.56,72a.5.5,0,0,1-.13.49A4.5,4.5,0,0,1,170.32,147.53Zm-.8-1.21c.29.19,1.3.64,2.94-.85l-19.29-71-2.54,1.74Z" fill="#231f20"></path><path d="M204.2,76.43C192.63,54.68,168.44,43,145.56,49.67s-36.95,29.6-35,54.15Z" fill="#fff"></path><path d="M110.59,104.32a.49.49,0,0,1-.28-.09.51.51,0,0,1-.21-.37c-2-25.1,12.82-48.09,35.32-54.67s47.4,4.78,59.22,27a.48.48,0,0,1,0,.42.51.51,0,0,1-.32.29l-93.6,27.39Zm47.85-56a45.25,45.25,0,0,0-12.74,1.82c-21.86,6.4-36.35,28.63-34.65,53l92.41-27C194,58.79,176.38,48.33,158.44,48.33Z" fill="#231f20"></path><path d="M190,80.58C179.89,58.41,161.5,45,145.56,49.67s-24.21,25.87-20.77,50Z" fill="#e6e7e8"></path><path d="M124.79,100.17a.5.5,0,0,1-.27-.08.52.52,0,0,1-.23-.35c-3.57-25.08,5.12-45.86,21.13-50.55s34.53,8.14,45,31.19a.49.49,0,0,1,0,.41.51.51,0,0,1-.32.27l-65.21,19.09Zm27.14-50.9a22.22,22.22,0,0,0-6.23.88C130.55,54.58,122,75.09,125.2,99l64.11-18.76C180.49,61.3,165.6,49.27,151.93,49.27Z" fill="#231f20"></path><path d="M171.68,85.94c-8.24-22.72-26.12-36.27-26.12-36.27s-7.76,21.06-2.45,44.63Z" fill="#fff"></path><path d="M143.11,94.8a.45.45,0,0,1-.25-.07.48.48,0,0,1-.23-.32C137.34,71,145,49.71,145.09,49.5a.51.51,0,0,1,.33-.31.53.53,0,0,1,.44.08c.18.14,18.1,13.91,26.29,36.5a.51.51,0,0,1-.33.65l-28.57,8.36A.32.32,0,0,1,143.11,94.8Zm2.69-44.3c-1.22,3.72-6.8,22.53-2.31,43.17L171,85.61C163.68,65.81,148.83,53,145.8,50.5Z" fill="#231f20"></path><path d="M296.54,36.45l-13,2.59L271.67,41.4,260.6,43.6,248.66,46l-17.09,3.41-.28,1.69-1.89,11.3-2.52,15-1.82,10.92-1.93,11.5-1.82,10.86v0l-2,11.86-1.82,10.92-2.17,13s1,2.57,6,2.86,5.31-2.86,5.31-2.86L227.7,140v0l1.89-11.18v0l2-11.85,1.88-11.15,1.82-10.87,1.89-11.22,2.17-13,2.06-12.21,0-.19,14.72-2.84,10.65-2,12.48-2.4,10.38-2,8.62-1.66S302.05,39.79,296.54,36.45Z" fill="#fff"></path><path d="M222,149.85c-.21,0-.44,0-.67,0-5.2-.31-6.37-3.06-6.42-3.17a.63.63,0,0,1,0-.27L231.08,49.3a.5.5,0,0,1,.39-.41l65-12.93a.43.43,0,0,1,.35.06c5.85,3.54,2,11.53,1.93,11.61a.47.47,0,0,1-.35.26L241.86,58.77l-14.75,87.78S226.69,149.85,222,149.85Zm-6.11-3.46c.27.46,1.51,2.2,5.5,2.44,4.36.26,4.77-2.31,4.78-2.42l14.8-88.13a.5.5,0,0,1,.4-.42L297.93,47c.55-1.24,2.9-7.14-1.49-10L232,49.81Z" fill="#231f20"></path><path d="M271.67,41.4a67.17,67.17,0,0,1,7.6,9.66l10.38-2a68.54,68.54,0,0,0-6.1-10Z" fill="#d1d3d4"></path><path d="M279.27,51.56a.5.5,0,0,1-.42-.23,66,66,0,0,0-7.54-9.59.49.49,0,0,1-.12-.49.52.52,0,0,1,.38-.34l11.88-2.36a.51.51,0,0,1,.5.19,68,68,0,0,1,6.15,10.1.51.51,0,0,1-.35.72l-10.39,2Zm-6.62-9.84a66.43,66.43,0,0,1,6.86,8.78l9.4-1.8a67.6,67.6,0,0,0-5.58-9.11Z" fill="#231f20"></path><path d="M229.4,62.37a59.17,59.17,0,0,1,9.93,8.38l2.06-12.21a48.87,48.87,0,0,0-10.1-7.47Z" fill="#d1d3d4"></path><path d="M239.33,71.25a.52.52,0,0,1-.36-.16,58.79,58.79,0,0,0-9.85-8.31.48.48,0,0,1-.21-.49L230.8,51a.47.47,0,0,1,.27-.37.48.48,0,0,1,.45,0,49.15,49.15,0,0,1,10.21,7.54.51.51,0,0,1,.15.45l-2,12.21a.51.51,0,0,1-.35.4Zm-9.39-9.11A60.1,60.1,0,0,1,239,69.68l1.84-11a49.1,49.1,0,0,0-9.18-6.87Z" fill="#231f20"></path><path d="M225.06,88.32a56.51,56.51,0,0,1,10.21,6.6l1.89-11.22a60.15,60.15,0,0,0-10.28-6.3Z" fill="#d1d3d4"></path><path d="M235.27,95.42a.45.45,0,0,1-.31-.11,55.94,55.94,0,0,0-10.13-6.54.5.5,0,0,1-.27-.53l1.83-10.92a.51.51,0,0,1,.26-.36.49.49,0,0,1,.44,0,59.3,59.3,0,0,1,10.37,6.35.5.5,0,0,1,.2.48L235.77,95a.5.5,0,0,1-.32.38A.57.57,0,0,1,235.27,95.42ZM225.61,88a56.83,56.83,0,0,1,9.31,6l1.7-10.08a59.81,59.81,0,0,0-9.35-5.78Z" fill="#231f20"></path><path d="M221.31,110.68v0a59.43,59.43,0,0,1,10.26,6.24l1.88-11.15a54.61,54.61,0,0,0-10.32-6Z" fill="#d1d3d4"></path><path d="M231.57,117.44a.45.45,0,0,1-.3-.1,58.48,58.48,0,0,0-10.17-6.19.5.5,0,0,1-.29-.45s0-.07,0-.1l1.81-10.87a.49.49,0,0,1,.26-.35.47.47,0,0,1,.43,0,54.55,54.55,0,0,1,10.42,6,.51.51,0,0,1,.2.49L232.06,117a.5.5,0,0,1-.31.39A.57.57,0,0,1,231.57,117.44Zm-9.7-7a59.3,59.3,0,0,1,9.34,5.64l1.69-10a53.68,53.68,0,0,0-9.38-5.49Z" fill="#231f20"></path><path d="M217.5,133.48A57.65,57.65,0,0,1,227.7,140l1.89-11.18v0a57.56,57.56,0,0,0-10.27-6.23Z" fill="#d1d3d4"></path><path d="M227.7,140.49a.5.5,0,0,1-.32-.11,55.82,55.82,0,0,0-10.11-6.45.53.53,0,0,1-.27-.53l1.83-10.92a.47.47,0,0,1,.26-.36.46.46,0,0,1,.44,0,57.43,57.43,0,0,1,10.36,6.28.49.49,0,0,1,.2.4l-1.9,11.29a.5.5,0,0,1-.31.38Zm-9.65-7.29a58.62,58.62,0,0,1,9.3,5.87l1.7-10.06a58.8,58.8,0,0,0-9.34-5.72Z" fill="#231f20"></path><path d="M248.66,46a76.1,76.1,0,0,1,7.48,9.54l10.65-2a58.31,58.31,0,0,0-6.19-9.86Z" fill="#d1d3d4"></path><path d="M256.14,56a.51.51,0,0,1-.42-.22,73.67,73.67,0,0,0-7.43-9.48.51.51,0,0,1-.11-.49.52.52,0,0,1,.38-.34l11.94-2.37a.49.49,0,0,1,.49.18,59.05,59.05,0,0,1,6.25,9.94.51.51,0,0,1-.35.72l-10.65,2Zm-6.52-9.72A75.55,75.55,0,0,1,256.38,55L266,53.09a57.15,57.15,0,0,0-5.64-8.94Z" fill="#231f20"></path><path d="M194.47,117.28c-32.15,0-58.3-9-58.3-19.94a.5.5,0,0,1,1,0c0,10.44,25.7,18.94,57.3,18.94s57.3-8.5,57.3-18.94a.5.5,0,0,1,.5-.5.5.5,0,0,1,.5.5C252.77,108.52,227.16,117.28,194.47,117.28Z" fill="#231f20"></path><path d="M206.79,184.5c-3.29,0-3.29,5.11,0,5.11S210.08,184.5,206.79,184.5Z" fill="#fff"></path><path d="M213,231.14l-.24-.48a4.25,4.25,0,0,0-2.29-1.76,3,3,0,0,0-1.53-.07,2.84,2.84,0,0,0-1.43.45l-.77.6a3.87,3.87,0,0,0-1,1.69c0,.34-.09.68-.13,1a3.79,3.79,0,0,0,.52,1.94l.24.47a2.86,2.86,0,0,0,1,1.08,2.77,2.77,0,0,0,1.3.68,4.34,4.34,0,0,0,3-.38l.77-.6a3.87,3.87,0,0,0,1-1.69c0-.34.09-.68.13-1A3.73,3.73,0,0,0,213,231.14Z" fill="#fff"></path><path d="M175.39,174.84c-4.93,0-4.94,7.66,0,7.66S180.32,174.84,175.39,174.84Z" fill="#fff"></path><path d="M194.8,200.25c-4.93,0-4.94,7.66,0,7.66S199.74,200.25,194.8,200.25Z" fill="#fff"></path><path d="M174.91,224c-4.93,0-4.94,7.66,0,7.66S179.84,224,174.91,224Z" fill="#fff"></path><path d="M224.77,189.94c-4.93,0-4.94,7.66,0,7.66S229.71,189.94,224.77,189.94Z" fill="#fff"></path><path d="M167.83,197.49c-4.93,0-4.93,7.66,0,7.66S172.77,197.49,167.83,197.49Z" fill="#fff"></path><path d="M222.85,215.11c-4.93,0-4.94,7.66,0,7.66S227.79,215.11,222.85,215.11Z" fill="#fff"></path><path d="M191.69,178c-3.29,0-3.3,5.11,0,5.11S195,178,191.69,178Z" fill="#fff"></path><path d="M193.33,239.06a1.11,1.11,0,0,0-.67-.67.93.93,0,0,0-.49-.11l-.34,0a1.26,1.26,0,0,0-.57.33c-.06.09-.13.17-.2.26a1.31,1.31,0,0,0-.17.65V240a1,1,0,0,0,.11.5,1,1,0,0,0,.26.41,1.06,1.06,0,0,0,.41.26,1,1,0,0,0,.5.11l.34,0a1.28,1.28,0,0,0,.56-.33l.2-.26a1.31,1.31,0,0,0,.17-.65v-.47A1,1,0,0,0,193.33,239.06Z" fill="#fff"></path><path d="M180.66,210c-4.11,0-4.12,6.39,0,6.39S184.78,210,180.66,210Z" fill="#fff"></path><path d="M209.91,208.56c-4.11,0-4.12,6.38,0,6.38S214,208.56,209.91,208.56Z" fill="#fff"></path><path d="M160.52,170.84c-3.28,0-3.29,5.11,0,5.11S163.82,170.84,160.52,170.84Z" fill="#fff"></path><path d="M226.69,171.8c-3.29,0-3.3,5.11,0,5.11S230,171.8,226.69,171.8Z" fill="#fff"></path><path d="M188.93,219.78c5-5.45,31.45-7.18,46.19-6.17s22.36,7.33,24.66,15.16,4.69,31.91-14.48,40.28-44,7.51-52.42-4.41S183.9,225.23,188.93,219.78Z" fill="#231f20"></path><path d="M218.76,275.07c-11.18,0-21.31-3.11-26.29-10.15-8.75-12.37-9.05-39.89-3.9-45.48l.36.34-.36-.34c5.43-5.88,33.21-7.24,46.58-6.33,13.53.94,22.45,6.45,25.1,15.52,2.32,7.92,4.59,32.43-14.75,40.88A68.91,68.91,0,0,1,218.76,275.07Zm7.51-61.24c-14.74,0-33,2-37,6.29h0c-4.85,5.25-4.36,32.43,4,44.23,7,9.91,29.5,14,51.81,4.24,18.69-8.15,16.45-32,14.2-39.68-2.53-8.64-11.13-13.9-24.22-14.8C232.42,213.92,229.43,213.83,226.27,213.83Z" fill="#231f20"></path><path d="M268.56,219s-1.94,18.72,6.12,30.81,21.31,6.73,30,.12,12.46-27.7,11-38.21-5.49-12-15.41-11.18S273.19,206.78,268.56,219Z" fill="#231f20"></path><path d="M287.33,257.5a15.8,15.8,0,0,1-2.65-.22c-4.19-.7-7.69-3.13-10.41-7.21-8.07-12.09-6.22-30.95-6.2-31.14a.5.5,0,0,1,0-.12c4.67-12.29,21.77-18,32.12-18.78,10-.78,14.38.65,15.94,11.61s-2.42,32.07-11.15,38.68C301.28,253.14,294.39,257.5,287.33,257.5Zm-18.28-38.4c-.11,1.2-1.59,19,6.05,30.42,2.56,3.84,5.84,6.13,9.74,6.78,7.56,1.28,15.5-3.7,19.56-6.77,3.83-2.91,7.07-9.07,9.13-17.37,1.78-7.18,2.41-15,1.64-20.38-1.44-10.09-5-11.54-14.88-10.76C290.21,201.82,273.58,207.29,269.05,219.1Z" fill="#231f20"></path><path d="M272.87,222.37s-2.8-2.75-10-1.73-10.54,5-10.54,5l2.17,5.74s9-7.17,17.67-2.3Z" fill="#231f20"></path><path d="M254.51,231.83a.34.34,0,0,1-.14,0,.49.49,0,0,1-.33-.3l-2.16-5.75a.48.48,0,0,1,.08-.5c.14-.16,3.56-4.08,10.85-5.11s10.29,1.74,10.41,1.86a.53.53,0,0,1,.15.41l-.7,6.66a.49.49,0,0,1-.26.39.51.51,0,0,1-.48,0c-8.24-4.64-17,2.19-17.11,2.26A.51.51,0,0,1,254.51,231.83Zm-1.59-6.13,1.82,4.85c2.06-1.42,9.62-6,17-2.31l.59-5.66c-.7-.52-3.54-2.28-9.4-1.45A17.73,17.73,0,0,0,252.92,225.7Z" fill="#231f20"></path><path d="M197.19,218s-61.59,1.47-70.12,1.33-15.63,14.79-11.43,17.55,7-8.78,12.45-9.23S194,228.76,194,228.76Z" fill="#231f20"></path><path d="M116.94,237.83a2.78,2.78,0,0,1-1.57-.51c-1.57-1-1.9-3.47-.91-6.69,1.52-4.92,6.38-11.78,12.49-11.78h.13c8.43.16,69.48-1.32,70.1-1.33a.53.53,0,0,1,.41.19.55.55,0,0,1,.08.45L194.5,228.9a.54.54,0,0,1-.49.36c-.61,0-60.49-1.53-65.88-1.09-2.39.19-4.35,2.88-6.08,5.25C120.47,235.6,118.83,237.83,116.94,237.83Zm10-18c-5,0-9.89,5.73-11.54,11.09-.84,2.72-.65,4.8.51,5.56,1.71,1.13,3.14-.66,5.33-3.66,1.86-2.54,4-5.43,6.8-5.66,5.27-.43,60,.94,65.6,1.08l2.87-9.72c-6.77.16-61.49,1.45-69.46,1.32Z" fill="#231f20"></path></g></svg>